<?xml version="1.0" encoding="UTF-8" standalone="no"?>
<!-- Generator: Adobe Illustrator 25.4.1, SVG Export Plug-In . SVG Version: 6.00 Build 0)  -->

<svg
   version="1.1"
   id="matic"
   x="0px"
   y="0px"
   viewBox="0 0 500 500"
   style="enable-background:new 0 0 500 500;"
   xml:space="preserve"
   sodipodi:docname="matic.svg"
   inkscape:version="1.2.2 (b0a8486541, 2022-12-01)"
   xmlns:inkscape="http://www.inkscape.org/namespaces/inkscape"
   xmlns:sodipodi="http://sodipodi.sourceforge.net/DTD/sodipodi-0.dtd"
   xmlns="http://www.w3.org/2000/svg"
   xmlns:svg="http://www.w3.org/2000/svg"><defs
   id="defs9" /><sodipodi:namedview
   id="namedview7"
   pagecolor="#ffffff"
   bordercolor="#000000"
   borderopacity="0.25"
   inkscape:showpageshadow="2"
   inkscape:pageopacity="0.0"
   inkscape:pagecheckerboard="0"
   inkscape:deskcolor="#d1d1d1"
   showgrid="false"
   inkscape:zoom="0.532"
   inkscape:cx="104.32331"
   inkscape:cy="250"
   inkscape:window-width="1366"
   inkscape:window-height="711"
   inkscape:window-x="0"
   inkscape:window-y="0"
   inkscape:window-maximized="1"
   inkscape:current-layer="matic" />
<style
   type="text/css"
   id="style2">
	.st0{fill:#8247E5;}
</style>
<g
   id="g354"
   transform="matrix(0.71948189,0,0,0.71948189,70.057575,72.072126)"><circle
     style="fill:#e6e6e6;stroke-width:1.13386;stroke-linecap:square"
     id="path290"
     cx="250.10001"
     cy="247.3"
     r="347.47226" /><path
     class="st0"
     d="m 377.3,163.9 c -9.2,-5.4 -21.2,-5.4 -31.4,0 l -72,41.7 -48.9,27.2 -72,41.7 c -9.2,5.4 -21.2,5.4 -31.4,0 L 64.4,241.9 C 55.2,236.5 48.7,226.5 48.7,215.6 v -64.3 c 0,-10.9 5.5,-20.8 15.7,-26.3 l 56.3,-31.7 c 9.2,-5.4 21.2,-5.4 31.4,0 l 56.3,31.7 c 9.2,5.4 15.7,15.4 15.7,26.3 V 193 L 273,164.9 v -41.7 c 0,-10.9 -5.5,-20.8 -15.7,-26.3 L 153.1,37.1 c -9.2,-5.4 -21.2,-5.4 -31.4,0 L 15.7,96.9 C 5.5,102.3 0,112.3 0,123.2 v 120.5 c 0,10.9 5.5,20.8 15.7,26.3 l 106.1,59.8 c 9.2,5.4 21.2,5.4 31.4,0 l 72,-40.8 48.9,-28.1 72,-40.8 c 9.2,-5.4 21.2,-5.4 31.4,0 l 56.3,31.7 c 9.2,5.4 15.7,15.4 15.7,26.3 v 64.3 c 0,10.9 -5.5,20.8 -15.7,26.3 l -56.3,32.6 c -9.2,5.4 -21.2,5.4 -31.4,0 l -56.3,-31.7 c -9.2,-5.4 -15.7,-15.4 -15.7,-26.3 v -41.7 l -48.9,28.1 v 41.7 c 0,10.9 5.5,20.8 15.7,26.3 L 347,457.5 c 9.2,5.4 21.2,5.4 31.4,0 l 106.1,-59.8 c 9.2,-5.4 15.7,-15.4 15.7,-26.3 V 250.9 c 0,-10.9 -5.5,-20.8 -15.7,-26.3 z"
     id="path4" /></g>
</svg>
