<?xml version="1.0" encoding="UTF-8" standalone="no"?>
<!-- Generator: Adobe Illustrator 19.0.0, SVG Export Plug-In . SVG Version: 6.00 Build 0)  -->

<svg
   version="1.1"
   id="Layer_1"
   x="0px"
   y="0px"
   viewBox="0 0 500 500"
   style="enable-background:new 0 0 500 500;"
   xml:space="preserve"
   sodipodi:docname="xrp.svg"
   inkscape:version="1.2.2 (b0a8486541, 2022-12-01)"
   xmlns:inkscape="http://www.inkscape.org/namespaces/inkscape"
   xmlns:sodipodi="http://sodipodi.sourceforge.net/DTD/sodipodi-0.dtd"
   xmlns="http://www.w3.org/2000/svg"
   xmlns:svg="http://www.w3.org/2000/svg"><defs
   id="defs379" /><sodipodi:namedview
   id="namedview377"
   pagecolor="#ffffff"
   bordercolor="#000000"
   borderopacity="0.25"
   inkscape:showpageshadow="2"
   inkscape:pageopacity="0.0"
   inkscape:pagecheckerboard="0"
   inkscape:deskcolor="#d1d1d1"
   showgrid="false"
   inkscape:zoom="0.532"
   inkscape:cx="126.8797"
   inkscape:cy="392.85714"
   inkscape:window-width="1366"
   inkscape:window-height="711"
   inkscape:window-x="0"
   inkscape:window-y="0"
   inkscape:window-maximized="1"
   inkscape:current-layer="Layer_1" />

<g
   id="g532"
   transform="translate(13.939362,-550.55865)"><circle
     style="fill:#aaccff;stroke-width:0.815792;stroke-linecap:square"
     id="path290"
     cx="236.06064"
     cy="800.55865"
     r="250" /><path
     d="m 106.55456,957.44632 c -16.464561,0 -32.370741,0 -50.43634,0 12.374653,-12.86993 23.54009,-24.47488 34.697455,-36.0879 25.377395,-26.41562 50.407725,-53.17466 76.207755,-79.17132 36.63528,-36.91337 94.37682,-38.60319 133.89426,-4.52502 3.25857,2.80952 6.33884,5.84723 9.31859,8.95539 34.91832,36.41367 69.80141,72.86109 105.76678,110.42016 -17.44778,0 -33.51759,0 -45.18124,0 -19.87575,-18.34149 -38.00152,-34.5419 -55.49847,-51.39535 -12.18241,-11.7348 -23.12772,-24.75221 -35.28298,-36.51859 -25.65475,-24.83367 -65.21622,-23.65601 -90.35514,2.35386 -25.88442,26.78106 -51.63455,53.69269 -77.46247,80.52877 -1.90334,1.97892 -3.9615,3.80888 -5.6682,5.44 z M 63.448358,649.72805 c 33.403858,34.92271 66.823122,69.83075 100.236522,104.74393 40.77362,42.60358 105.25536,41.99971 146.2491,-1.1263 30.95754,-32.56739 62.22033,-64.84494 93.31435,-97.28246 3.45815,-3.60783 6.70278,-7.42039 11.17424,-12.39226 -18.65407,0 -35.17072,0 -45.55105,0 -17.56812,15.92966 -32.08972,28.38062 -45.76531,41.70034 -13.66091,13.30505 -26.3474,27.60359 -39.68547,41.24762 -28.24708,28.89498 -67.88265,28.26469 -95.54127,-0.94286 -26.02015,-27.47665 -52.42553,-54.58789 -78.7612,-81.96328 -16.370637,0 -32.659834,0 -50.927213,0 2.543903,2.92032 3.836032,4.52943 5.257301,6.01527 z"
     id="path374"
     style="stroke-width:0.733748" /></g></svg>
