<?xml version="1.0" encoding="UTF-8" standalone="no"?>
<!-- Generator: Adobe Illustrator 21.0.0, SVG Export Plug-In . SVG Version: 6.00 Build 0)  -->

<svg
   version="1.1"
   id="YouTube_Icon"
   x="0px"
   y="0px"
   viewBox="0 0 1024 721"
   enable-background="new 0 0 1024 721"
   xml:space="preserve"
   sodipodi:docname="YouTube_play_button_icon_(2013–2017).svg"
   inkscape:version="1.2.2 (b0a8486541, 2022-12-01)"
   xmlns:inkscape="http://www.inkscape.org/namespaces/inkscape"
   xmlns:sodipodi="http://sodipodi.sourceforge.net/DTD/sodipodi-0.dtd"
   xmlns="http://www.w3.org/2000/svg"
   xmlns:svg="http://www.w3.org/2000/svg"><defs
   id="defs1960">
	

		
			<linearGradient
   id="SVGID_1_"
   gradientUnits="userSpaceOnUse"
   x1="512.5"
   y1="719.70001"
   x2="512.5"
   y2="1.2"
   gradientTransform="matrix(1,0,0,-1,0,721)">
			<stop
   offset="0"
   style="stop-color:#E52D27"
   id="stop1947" />
			<stop
   offset="1"
   style="stop-color:#BF171D"
   id="stop1949" />
		</linearGradient>
		
	</defs><sodipodi:namedview
   id="namedview1958"
   pagecolor="#ffffff"
   bordercolor="#000000"
   borderopacity="0.25"
   inkscape:showpageshadow="2"
   inkscape:pageopacity="0.0"
   inkscape:pagecheckerboard="0"
   inkscape:deskcolor="#d1d1d1"
   showgrid="false"
   inkscape:zoom="0.26087435"
   inkscape:cx="-5.7498946"
   inkscape:cy="486.82441"
   inkscape:window-width="1366"
   inkscape:window-height="711"
   inkscape:window-x="0"
   inkscape:window-y="0"
   inkscape:window-maximized="1"
   inkscape:current-layer="YouTube_Icon" />
<path
   id="Triangle"
   fill="#FFFFFF"
   d="M407,493l276-143L407,206V493z" />
<path
   id="The_Sharpness"
   opacity="0.12"
   fill="#420000"
   d="M407,206l242,161.6l34-17.6L407,206z" />
<path
   fill="url(#SVGID_1_)"
   d="m 1013,156.3 c 0,0 -10,-70.4 -40.6,-101.4 C 933.6,14.2 890,14 870.1,11.6 727.1,1.3 512.7,1.3 512.7,1.3 h -0.4 c 0,0 -214.4,0 -357.4,10.3 C 135,14 91.4,14.2 52.6,54.9 22,85.9 12,156.3 12,156.3 c 0,0 -10.2,82.6 -10.2,165.3 v 77.5 c 0,82.7 10.2,165.3 10.2,165.3 0,0 10,70.4 40.6,101.4 38.9,40.7 89.9,39.4 112.6,43.7 81.7,7.8 347.3,10.3 347.3,10.3 0,0 214.6,-0.3 357.6,-10.7 20,-2.4 63.5,-2.6 102.3,-43.3 30.6,-31 40.6,-101.4 40.6,-101.4 0,0 10.2,-82.7 10.2,-165.3 v -77.5 c 0,-82.7 -10.2,-165.3 -10.2,-165.3 z M 407,493 V 206 l 276,144 z"
   id="path1952"
   style="fill:#ff0000" />
</svg>
